# xmcd CD database file
#
# Track frame offsets:
#	187
#	23797
#	42962
#	65097
#	92250
#	110987
#	123990
#	141685
#	154080
#	174650
#	183027
#	202822
#	220915
#
# Disc length: 3170 seconds
#
# Revision: 1
# Processed by: cddbd v1.5.2PL0 Copyright (c) Steve Scherf et al.
# Submitted via: CD2WAV32(JP) R3.22
#
DISCID=b90c600d
DTITLE=NTV - 星の金貨
DYEAR=1995
DGENRE=New Age
TTITLE0=Main Theme 星の金貨
TTITLE1=光
TTITLE2=7月の水
TTITLE3=青い記憶
TTITLE4=ガーデン
TTITLE5=ささやかな希望
TTITLE6=赤と黒
TTITLE7=Missing Link
TTITLE8=どこへいっても
TTITLE9=帽子
TTITLE10=碧いうさぎ(オーケストラバージョン)
TTITLE11=静けさの中に
TTITLE12=碧いうさぎ
EXTD=
EXTT0=
EXTT1=
EXTT2=
EXTT3=
EXTT4=
EXTT5=
EXTT6=
EXTT7=
EXTT8=
EXTT9=
EXTT10=
EXTT11=
EXTT12=
PLAYORDER=
